<?xml version="1.0" encoding="UTF-8"?>
<!DOCTYPE svg PUBLIC "-//W3C//DTD SVG 1.0//EN" "http://www.w3.org/TR/2001/REC-SVG-20010904/DTD/svg10.dtd">
<!-- Creator: CorelDRAW X7 -->
<svg xmlns="http://www.w3.org/2000/svg" xml:space="preserve" width="249px" height="55px" version="1.0" style="shape-rendering:geometricPrecision; text-rendering:geometricPrecision; image-rendering:optimizeQuality; fill-rule:evenodd; clip-rule:evenodd"
viewBox="0 0 49800 10978"
 xmlns:xlink="http://www.w3.org/1999/xlink">
 <defs>
  <style type="text/css">
   <![CDATA[
    .fil2 {fill:#3366FF}
    .fil4 {fill:#AFECE4}
    .fil5 {fill:#D0F4EF}
    .fil1 {fill:#3366FF;fill-rule:nonzero}
    .fil0 {fill:#636363;fill-rule:nonzero}
    .fil3 {fill:url(#id0)}
   ]]>
  </style>
  <linearGradient id="id0" gradientUnits="userSpaceOnUse" x1="2657.15" y1="6502.09" x2="7158.46" y2="3878.62">
   <stop offset="0" style="stop-opacity:1; stop-color:#4599FF"/>
   <stop offset="1" style="stop-opacity:1; stop-color:#91E5DA"/>
  </linearGradient>
 </defs>
 <g id="Layer_x0020_1">
  <metadata id="CorelCorpID_0Corel-Layer"/>
  <path class="fil0" d="M48685 8337c-338,0 -603,-85 -795,-254 -191,-169 -287,-439 -287,-811 0,-129 2,-252 4,-367 3,-116 5,-255 5,-419l0 -1799 -626 0 0 -440 685 -84 321 -1158 684 0 -34 1166 1014 0 0 516 -1022 0 0 2492c0,209 41,361 122,457 82,95 191,143 326,143 152,0 324,-70 515,-211l203 211c-107,175 -254,311 -439,410 -186,99 -412,148 -676,148z"/>
  <path class="fil0" d="M42084 8219l0 -347 550 -110c5,-208 8,-435 8,-680 0,-245 0,-458 0,-638l0 -448c0,-231 -1,-415 -4,-553 -3,-138 -10,-292 -21,-461l-592 -76 0 -321 1411 -532 136 85 59 650c433,-490 912,-735 1436,-735 366,0 649,121 849,363 200,243 300,626 300,1149l0 879c0,192 0,409 0,651 0,242 3,467 9,676l515 101 0 347 -2087 0 0 -347 541 -110c5,-208 8,-432 8,-671 0,-240 0,-455 0,-647l0 -802c0,-333 -45,-562 -135,-689 -90,-127 -242,-190 -456,-190 -299,0 -614,138 -947,414l0 1267c0,186 0,400 0,642 0,243 3,471 9,685l499 101 0 347 -2088 0z"/>
  <path class="fil0" d="M39807 8337c-394,0 -740,-85 -1039,-254 -298,-169 -532,-412 -701,-730 -169,-319 -254,-698 -254,-1137 0,-451 97,-838 292,-1162 194,-324 448,-572 760,-743 313,-172 647,-258 1002,-258 332,0 622,70 870,211 248,141 441,338 579,592 138,253 207,552 207,895 0,181 -17,336 -51,465l-2586 0c23,484 151,848 385,1090 234,242 528,363 883,363 248,0 457,-49 629,-148 172,-98 328,-226 469,-384l245 220c-163,309 -387,550 -671,722 -285,172 -624,258 -1019,258zm0 -3878c-135,0 -269,43 -401,131 -132,87 -245,229 -338,426 -93,197 -151,465 -173,803l1157 0c203,0 338,-42 406,-127 68,-84 101,-203 101,-355 0,-259 -73,-470 -219,-633 -147,-164 -324,-245 -533,-245z"/>
  <path class="fil0" d="M36402 8337c-338,0 -603,-85 -794,-254 -192,-169 -287,-439 -287,-811 0,-129 1,-252 4,-367 3,-116 4,-255 4,-419l0 -1799 -625 0 0 -440 684 -84 321 -1158 685 0 -34 1166 1014 0 0 516 -1022 0 0 2492c0,209 40,361 122,457 82,95 190,143 325,143 152,0 324,-70 516,-211l203 211c-107,175 -254,311 -440,410 -186,99 -411,148 -676,148z"/>
  <path class="fil0" d="M29786 8219l0 -347 550 -110c5,-208 8,-435 8,-680 0,-245 0,-458 0,-638l0 -448c0,-231 -1,-415 -4,-553 -3,-138 -10,-292 -21,-461l-592 -76 0 -321 1411 -532 135 85 60 650c433,-490 912,-735 1436,-735 366,0 649,121 849,363 200,243 300,626 300,1149l0 879c0,192 0,409 0,651 0,242 3,467 8,676l516 101 0 347 -2087 0 0 -347 541 -110c5,-208 8,-432 8,-671 0,-240 0,-455 0,-647l0 -802c0,-333 -45,-562 -135,-689 -90,-127 -242,-190 -456,-190 -299,0 -614,138 -947,414l0 1267c0,186 0,400 0,642 0,243 3,471 9,685l498 101 0 347 -2087 0z"/>
  <path class="fil0" d="M26677 3014l0 -397 2543 0 0 397 -710 76c-5,349 -10,702 -12,1060 -3,358 -5,720 -5,1086l0 363c0,355 2,711 5,1069 2,358 7,717 12,1077l710 76 0 398 -2543 0 0 -398 710 -76c11,-349 16,-704 16,-1064 0,-361 0,-721 0,-1082l0 -363c0,-355 0,-711 0,-1069 0,-358 -5,-717 -16,-1077l-710 -76z"/>
  <polygon class="fil1" points="24852,4526 24852,4171 26457,4171 26457,4526 25984,4627 24598,8252 24100,8252 22571,4602 22131,4526 22131,4171 24353,4171 24353,4526 23703,4627 24632,7078 25469,4636 "/>
  <path class="fil1" d="M20171 8337c-395,0 -741,-85 -1039,-254 -299,-169 -533,-412 -702,-730 -169,-319 -253,-698 -253,-1137 0,-451 97,-838 291,-1162 195,-324 448,-572 761,-743 312,-172 646,-258 1001,-258 332,0 622,70 870,211 248,141 441,338 579,592 138,253 207,552 207,895 0,181 -17,336 -51,465l-2585 0c22,484 150,848 384,1090 234,242 528,363 883,363 248,0 458,-49 630,-148 171,-98 328,-226 469,-384l245 220c-164,309 -388,550 -672,722 -284,172 -624,258 -1018,258zm0 -3878c-135,0 -269,43 -402,131 -132,87 -245,229 -337,426 -93,197 -151,465 -174,803l1158 0c203,0 338,-42 405,-127 68,-84 102,-203 102,-355 0,-259 -73,-470 -220,-633 -146,-164 -324,-245 -532,-245z"/>
  <path class="fil1" d="M12323 3014l0 -397 2501 0c569,0 1063,110 1483,329 420,220 745,538 976,955 231,417 346,921 346,1512 0,598 -126,1104 -380,1521 -253,417 -603,735 -1048,955 -444,220 -957,330 -1537,330l-2341 0 0 -398 710 -76c11,-354 17,-715 17,-1081 0,-366 0,-744 0,-1132l0 -296c0,-355 0,-711 0,-1069 0,-358 -6,-717 -17,-1077l-710 -76zm1817 2518c0,388 1,769 4,1140 3,372 7,741 13,1107l481 0c575,0 1020,-205 1335,-617 316,-411 474,-991 474,-1740 0,-772 -155,-1361 -465,-1766 -310,-406 -741,-608 -1293,-608l-532 0c-6,360 -10,723 -13,1090 -3,366 -4,732 -4,1098l0 296z"/>
  <path class="fil2" d="M5498 163l3728 2152c375,216 590,589 590,1022l0 4304c0,434 -215,806 -590,1022l-3728 2153c-375,216 -805,216 -1181,0l-3727 -2153c-375,-216 -590,-588 -590,-1022l0 -4304c0,-434 215,-806 590,-1022l3727 -2152c376,-217 806,-217 1181,0z"/>
  <path class="fil2" d="M5364 1374l2880 1662c290,168 456,455 456,790l0 3326c0,335 -166,622 -456,790l-2880 1662c-290,168 -622,168 -912,0l-2880 -1662c-290,-168 -456,-455 -456,-790l0 -3326c0,-335 166,-622 456,-790l2880 -1662c290,-168 622,-168 912,0z"/>
  <path class="fil3" d="M2494 5291l-886 -512c-104,-60 -223,-60 -328,0 -104,60 -164,164 -164,285l0 2088c0,335 166,622 456,790l1808 1044c105,60 224,60 329,0 104,-61 164,-164 164,-285l0 -1023 0 -430 1887 1090c104,60 224,60 328,0 105,-60 165,-164 165,-284l0 -1387 0 -402 551 319 1403 810c105,60 224,60 328,0 105,-60 165,-164 165,-284l0 -3283c0,-336 -166,-623 -456,-790l-2844 -1642c-104,-60 -224,-60 -328,0 -104,60 -164,164 -164,284l0 1621 0 636 -348 -201 -1201 -693c-104,-60 -224,-60 -328,0 -105,60 -164,164 -164,284l0 2180 -373 -215z"/>
  <path class="fil4" d="M2867 5506l0 635c0,335 166,622 456,790l550 317 0 -635c0,-335 -166,-622 -456,-790l-550 -317z"/>
  <path class="fil5" d="M4908 3936l0 1026c0,335 166,623 456,790l888 513 1 -1026c0,-335 -166,-622 -456,-790l-889 -513z"/>
 </g>
</svg>
