<svg id="Layer_1" data-name="Layer 1" xmlns="http://www.w3.org/2000/svg" viewBox="0 0 2376.14 2523.14"><defs><style>.cls-1{fill:#0147b7;}.cls-2{opacity:0.2;}.cls-3{fill:#fff;}</style></defs><title>logo</title><path class="cls-1" d="M19.52,429.12l1156.32-412L2363.31,421.79,2171,1951.66l-995.2,551.16L196.22,1959Z"/><path class="cls-1" d="M2363.31,421.79,1175.84,17.12v2485.7L2171,1952.58,2363.31,421.79Z"/><path class="cls-2" d="M2365.88,425.65,1178.41,21v2485.7l995.2-550.24L2365.88,425.65Z"/><path class="cls-3" d="M1177.67,307.35,457.15,1910.47l269.16-4.58L871,1544.24h646.37l158.39,366.23L1933,1915,1177.67,307.35ZM1179.51,821,1423,1330H965.26l214.25-509Z"/><path class="cls-1" d="M1353.72,1367.18H1422l-55.26,40.16,21.13-65,21.13,65Z"/><path class="cls-1" d="M1354.72,1490.7H1423l-55.26,40.16,21.13-65,21.13,65Z"/><path class="cls-1" d="M965.26,1367.18h68.32l-55.26,40.16,21.13-65,21.13,65Z"/><path class="cls-1" d="M965.26,1490.7h68.32l-55.26,40.16,21.13-65,21.13,65Z"/><path class="cls-1" d="M1141.68,1429.18H1210l-55.26,40.16,21.13-65,21.13,65Z"/></svg>