<svg version="1" xmlns="http://www.w3.org/2000/svg" width="933.333" height="933.333" viewBox="0 0 700.000000 700.000000"><path d="M220 130.4c-92.7 33.1-129.6 46.8-129.8 47.9-.3 1.3 38.7 343 39.2 343.3 2.5 1.8 220.2 121.7 221 121.7.9 0 219.3-120.6 220.3-121.7.2-.1 9.2-77.6 20.1-172.2 13.7-118.2 19.5-172.1 18.8-172.6-.6-.4-20-7.4-43.1-15.7-146.2-52.1-213.3-75.9-215-76.4-1.2-.3-54.2 18.1-131.5 45.7zm211.4 198.4c44.4 99.6 80.6 181.4 80.6 181.7 0 .3-13.6.5-30.3.5h-30.4l-5.2-13.2c-2.9-7.3-10.2-25.6-16.3-40.6l-11-27.2H280.5l-16 40.3-16.1 40.2-30.7.3-30.7.2 1.2-2.9c11.9-28 161.5-361.7 162-361.3.4.4 36.9 82.3 81.2 182z"/><path d="M326.8 320.8c-12.5 30.1-23 55.5-23.3 56.4-.7 1.7 1.9 1.8 46.5 1.8 44.5 0 47.2-.1 46.6-1.8-3.4-8.9-46.2-111.2-46.6-111.2-.3 0-10.7 24.7-23.2 54.8z"/></svg>